PathFileType	4	(X/Y/Z)	c:/Users/goper/Files/vsCode/490R/osim_files/C15/C15_Slow_06.trc
DataRate	CameraRate	NumFrames	NumMarkers	Units                	OrigDataRate	OrigDataStartFrame	OrigNumFrames
250.00	250.00	6	36	mm	250.0	1410	2818
                Frame#	Time	LPSIS			LASIS			LTH1			LTH2			LTH3			LTH4			LLFE			LMFE			LSH1			LSH2			LSH3			LSH4			LLMAL			LMMAL			LCAL			LMTP5			LTOE			LMTP1			RPSIS			RASIS			RTH1			RTH2			RTH3			RTH4			RLFE			RMFE			RSH1			RSH2			RSH3			RSH4			RLMAL			RMMAL			RCAL			RMTP1			RTOE			RMTP5		
		X1	Y1	Z1	X2	Y2	Z2	X3	Y3	Z3	X4	Y4	Z4	X5	Y5	Z5	X6	Y6	Z6	X7	Y7	Z7	X8	Y8	Z8	X9	Y9	Z9	X10	Y10	Z10	X11	Y11	Z11	X12	Y12	Z12	X13	Y13	Z13	X14	Y14	Z14	X15	Y15	Z15	X16	Y16	Z16	X17	Y17	Z17	X18	Y18	Z18	X19	Y19	Z19	X20	Y20	Z20	X21	Y21	Z21	X22	Y22	Z22	X23	Y23	Z23	X24	Y24	Z24	X25	Y25	Z25	X26	Y26	Z26	X27	Y27	Z27	X28	Y28	Z28	X29	Y29	Z29	X30	Y30	Z30	X31	Y31	Z31	X32	Y32	Z32	X33	Y33	Z33	X34	Y34	Z34	X35	Y35	Z35	X36	Y36	Z36

1410	5.63600	265.35596	1000.75537	275.37265	97.00710	982.54645	336.75922	79.58083	593.12909	407.20447	62.00421	550.06683	390.85455	34.92548	618.21887	409.42615	18.45075	576.08075	400.67566	21.93816	491.54926	372.44400	2.71306	479.30273	252.75224	45.15453	372.11734	381.70987	31.29599	329.09821	385.32498	-13.66931	386.73148	386.04474	-20.15484	343.22308	391.53745	-87.54272	86.72872	332.72861	-106.49322	124.03133	247.27852	-45.48557	45.51674	279.85214	-217.67815	79.45576	361.96030	-263.15506	132.65654	310.49557	-242.41301	93.85012	248.43547	263.21005	1004.83289	154.29677	108.35069	980.34979	87.79008	202.47931	612.47565	51.30862	207.19415	567.43921	61.74133	143.73328	606.32050	66.79736	154.92711	560.17462	73.07809	216.02679	472.98950	90.32874	232.91333	463.07309	207.60139	325.85791	389.64761	77.35669	337.48279	347.11047	76.13787	266.31039	364.51514	78.22816	288.96591	327.60352	74.48399	393.43262	90.30687	149.83615	358.16980	110.11900	236.27827	458.55276	65.90874	199.27974	255.75513	40.59192	229.16562	224.01457	55.25964	173.66173	288.59799	30.99441	109.93322
1411	5.64000	261.21603	1000.39740	275.81509	92.94043	982.19110	336.92520	75.24708	592.76190	407.08765	57.78429	549.62103	390.67587	30.57589	617.78815	409.00452	14.18077	575.65338	400.20676	17.98558	490.97565	372.19797	-0.80425	478.98026	252.45573	41.65125	371.64404	381.44638	27.90854	328.53806	385.02063	-17.41901	385.97424	385.60034	-23.65046	342.46997	391.05676	-89.73442	85.96144	332.02267	-108.46252	123.34135	246.54385	-47.00753	45.48573	279.47830	-219.89468	77.98738	360.73999	-265.48999	130.82536	308.88013	-243.91013	92.06335	247.18425	259.34909	1004.38965	154.72403	104.69378	979.78680	87.92709	199.35089	612.03455	51.64512	204.13092	567.04633	61.99510	140.41649	605.72272	67.02620	151.68599	559.60779	73.34734	212.45065	472.20511	90.91242	229.51646	462.54642	207.86470	323.22272	389.85690	77.66882	334.76477	347.22095	76.29449	263.85480	364.26828	78.45412	286.78952	327.58850	74.67677	392.97156	90.91036	149.90536	357.71661	110.44116	236.34097	458.23627	66.64077	199.32410	255.53561	40.66996	229.16766	223.98358	55.23063	173.66858	288.59708	31.01884	109.98518
1412	5.64400	256.95013	999.98688	276.27405	89.09255	982.21637	336.96338	70.86199	592.34045	406.91547	53.33603	549.18793	390.38528	26.24668	617.47083	408.70239	9.49705	575.15155	398.99454	14.07989	490.48862	371.93140	-4.37241	478.64395	252.17120	38.07692	371.14120	381.14783	24.58391	328.06598	384.80481	-20.98082	385.29062	385.14951	-27.08228	341.74341	390.55862	-91.50868	85.14281	331.26877	-110.10860	122.24721	245.71577	-48.17919	45.41103	279.13290	-221.59113	76.42443	359.46347	-267.52026	128.62341	307.25436	-245.21252	89.85297	245.82108	255.45395	1003.93414	155.17319	100.87277	979.26166	88.12871	195.98445	611.53119	52.02649	200.24823	566.53473	62.48167	137.14351	605.18146	67.27378	148.50365	559.04700	73.53793	208.69780	471.34088	91.59473	226.11374	461.97668	208.13928	320.51764	389.99976	78.01625	331.96371	347.35721	76.35081	261.94131	364.64499	78.30326	284.65814	327.58282	74.85818	392.49908	91.62203	149.96718	357.15854	110.85142	236.49338	457.98007	67.54646	199.34796	255.29300	40.78047	229.16483	223.82428	55.14396	173.67604	288.54327	31.05148	109.99129
1413	5.64800	253.51976	1000.01105	276.86096	83.55415	981.57123	337.18042	68.71674	594.36469	408.28522	50.32862	549.53802	390.79926	21.84133	617.10040	408.36081	5.43794	574.81427	399.26001	9.97130	489.97501	371.62161	-7.97458	478.34653	251.81764	34.70964	370.72327	380.89252	21.39858	327.62671	384.47043	-24.66636	384.56812	384.62283	-30.30097	340.99017	390.05835	-93.36904	83.80202	330.35129	-111.53883	121.03625	244.87450	-48.99558	45.33595	278.84396	-222.98199	74.69217	358.21057	-269.09851	126.16531	305.60831	-246.10701	87.21214	244.42862	251.47554	1003.49377	155.62267	97.15446	978.67822	88.28151	192.97662	611.37634	52.38577	197.02045	565.99982	62.87300	133.90735	604.60767	67.48426	145.28778	558.51953	73.70670	204.81876	470.42709	92.34011	222.60326	461.47598	208.36368	317.92319	390.26239	78.24039	330.64044	348.41782	76.64938	258.87000	363.85699	78.92419	282.39597	327.51831	75.14219	392.11121	92.33292	149.97896	356.46439	111.29872	236.57033	457.68872	68.38089	199.36598	255.06076	40.90876	229.16194	223.53813	54.86290	173.74644	288.57706	31.09605	109.98459
1414	5.65200	249.30428	999.72064	277.34042	79.49121	981.11505	337.38635	60.52082	590.95331	405.92966	44.73711	548.64569	389.95926	17.26553	616.79639	408.01382	0.75808	574.48108	398.20432	5.98759	489.55167	371.34488	-11.43038	477.95474	251.46887	31.71036	370.52454	380.63309	18.22731	327.24689	384.14227	-28.06933	383.91748	384.13123	-33.54642	340.25607	389.48312	-94.46461	82.81258	329.68063	-112.44677	119.57143	244.05112	-49.39111	45.29322	278.50916	-224.07491	72.86272	356.95374	-270.47546	123.48354	303.73581	-246.84338	84.30692	243.08273	247.41426	1003.04529	156.11217	93.35631	978.13318	88.41647	189.71819	610.92664	52.72344	193.81992	565.54291	63.16169	130.32460	603.82593	67.86044	141.93996	557.96478	73.90099	200.86407	469.49423	93.11301	219.23856	460.98019	208.61534	315.26315	390.45276	78.50479	328.19037	348.76233	76.85062	256.87146	364.16116	78.78797	279.92249	327.66592	75.26876	391.67465	93.09078	150.03546	355.93051	111.75004	236.53677	457.33603	69.37426	199.35730	254.81741	41.06621	229.13792	223.45621	54.81454	173.71800	288.60638	31.14453	110.00807
1415	5.65600	244.28494	999.11206	277.61395	75.87716	980.61615	337.73737	56.03952	590.75433	405.81015	41.50503	548.99268	390.28146	12.76913	616.46863	407.64850	-3.58048	574.27905	397.75583	1.93613	489.11816	370.96320	-15.05239	477.68106	251.20467	28.13154	370.01657	380.19733	15.26754	326.89404	383.85095	-31.58611	383.24222	383.58600	-36.72570	339.50830	388.84894	-94.74669	82.38598	329.64594	-113.23475	118.06222	243.20576	-49.76643	45.04575	278.16296	-225.12805	70.94858	355.82208	-271.70737	120.65163	302.00558	-247.54782	81.24438	241.71101	243.41441	1002.62946	156.60080	89.37990	977.55042	88.70489	186.31778	610.43213	53.07562	190.47168	565.08612	63.44565	127.23376	603.51221	67.97523	138.68637	557.39844	74.08115	196.88434	468.57275	93.87788	215.88419	460.52722	208.88248	312.52118	390.70581	78.71621	325.80716	349.05820	77.12582	254.34152	363.97345	78.98640	277.69818	327.66095	75.44342	391.13242	93.85245	150.03873	355.29575	112.27311	236.51854	457.06860	70.46055	199.37350	256.72137	39.32997	229.01877	223.47881	54.80620	173.63391	288.61646	31.19123	110.01502
